<?xml version="1.0" encoding="UTF-8"?>
<svg id="Layer_1" data-name="Layer 1" xmlns="http://www.w3.org/2000/svg" viewBox="0 0 180 39.27">
  <defs>
    <style>
      .cls-1 {
        fill: #c4962d;
      }

      .cls-1, .cls-2 {
        stroke-width: 0px;
      }

      .cls-2 {
        fill: #fff;
      }
    </style>
  </defs>
  <g>
    <path class="cls-1" d="m38.01,17.92c-1.84-.95-6.1-2.79-10.85-2.84-3.38-.02-5.72.71-7.35,1.35-1.47.57-2.98,1.56-3.83,2.55-.76.83-1.04,1.73-1.04,1.73h.02s.05,0,.09-.02c.47-.09,2.32-.52,3.74.05,1.16.45,2.65,1.28,3.88,3.52.78,1.42,1.73,3.76,1.75,3.78v-.05s.02.05.02.05c0,0-.02-.09-.05-.26-.09-.73-.28-2.77,1.16-4.23,1.54-1.54,4.8-.66,4.82-.66v-.02h.02s-.05-.07-.12-.19c-.38-.57-1.49-2.29-1.16-3.66.24-1.02.76-1.68,1.65-2.03,1.35-.57,2.98-.17,3.78.02l.19.05c1.35.31,4.35,1.35,4.4,1.37,0,0-.02-.02-.05-.02.02,0,.05.02.05.02,0,0-.5-.17-1.13-.5Z"/>
    <path class="cls-1" d="m22.06,12.08h0s1.91-1.37,4.26-2.17c1.51-.5,3.74-1.16,7.59-1.65,4.85-.64,9.57-.21,9.62-.21,0,0-.02,0-.02-.02h.02s-.05,0-.12-.05c-.28-.14-1.04-.54-1.09-1.8-.09-1.91,2.93-4.85,2.96-4.87,0,0-.02,0-.05.02l.02-.02s-.19.12-.5.28c-1.25.71-4.56,2.51-6.45,2.86-1.13.21-2.39.12-2.6-.59-.31-.99.33-2.67.35-2.7h-.02v-.02s-.38.24-1.04.59c-2.84,1.65-10.5,6.22-11.7,7.75-.97,1.21-1.23,2.53-1.23,2.53v.07Z"/>
    <path class="cls-1" d="m39.88,12.06c1.44-1.82,3.78-2.86,3.81-2.88h-.02.02s-.26-.02-.71-.07c-1.73-.17-6.22-.45-9.65.05-5.39.78-7.02,1.54-8.72,2.32-1.51.71-2.72,1.54-3.69,2.55-.69.73-.76,1.32-.76,1.32v.02h.02s4.07-1.56,9.2-.97c4.47.52,9.81,3.17,9.88,3.22v-.02h.02s-.05-.07-.09-.19c-.38-.64-1.23-2.93.69-5.34Z"/>
    <path class="cls-1" d="m50.85,10.41c.02.07.21.38.21.38l.09.12c.05.09.12.19.24.33l.12.17c.38.43.83.64,1.35.85v-.02h0s0-.05-.02-.09c-.07-.4-.38-1.89-.5-3.36-.09-1.42-.09-1.65-.05-3.05v-.26h-.02s-.02.02-.09.09c-.31.31-1.23,1.25-2.51,2.27-1.77,1.39-2.48,1.7-2.48,1.7h.02s.02.02.07.02c.21.14.9.47,1.65.5.47.02.54,0,.76-.07,0,0,.21-.05.28-.07l-.07.12c-.24.45-.99,1.94-.99,1.94-.02-.02-4.18-2.03-7.21,1.16-1.06,1.11-1.39,2.51-.95,3.83.31.92,1.58,2.22,3.78,2.08,2.62-.17,3.69-2.6,3.76-2.74,0,0,0,.02.02.05.07.17.28.73.09,1.39-.21.78-.95,1.84-2.1,2.32-1.37.57-3.26.95-6.81-.5l-.76-.31c-.9-.38-1.77-.73-2.7-.99l-.35-.09c-.9-.26-2.01-.59-3.36-.59-.8,0-1.68.12-2.15,1.06-.19.35-.26.71-.26,1.04,0,.66.31,1.32.69,2.08.54,1.04,1.51,2.46,1.65,2.65-.02-.02-.07-.02-.14-.07-.45-.21-1.8-.73-3.05-.85-1.84-.17-2.67.09-3.38,1.09-.38.57-.76,2.1-.45,3.55.35,1.61,1.18,2.88,2.27,3.5l.97.47s-.02.05-.02.07c-1.02,2.22-2.41,3.74-3.52,3.81-.8.07-1.77-1.13-2.43-1.94-.26-.33-.47-.59-.61-.66-.87-.57-1.68.26-1.68.26h.02c.09.05.45.14.8.45.59.5.43,1.06.4,1.11l-.02-.02c-.05-.09-.4-.4-1.28-.19-1.11.26-1.13,2.2-1.13,2.22h.02s.02-.02.02-.05c.12-.12.43-.47.76-.73.97-.71,2.39.85,2.46.9-.14.02-.28.07-.4.14-1.21.47-1.63,1.73-1.63,1.73h.02s.07-.02.17-.05c.71-.19,3.52-.95,7.23-.9,2.1.02,4.33.64,4.35.66h0v-.02h.02s-.02-.05-.07-.12c-.19-.28-.73-1.06-1.23-1.35-.57-.33-2.74-.59-2.96-.61.05-.02.12-.05.21-.12.61-.31,2.27-1.16,2.84-1.54.66-.45,1.02-.71,1.42-1.25.5-.64.61-1.39.61-1.42,0,.02.28.05.54.31.35.38.38.87.38.95v.02l.02-.02v.02s.02-.07.05-.19c.12-.4.28-1.44-.26-2.46-.4-.73-.95-1.09-1.42-1.37-.35-.24-.69-.43-.87-.76-.43-.78-.14-1.73.73-2.29.52-.33,1.28-.69,1.28-.69,0,.02,1.21,2.06,3.52,3.43,2.34,1.37,5.46,1.3,5.51,1.3,0,0,.92.71,1.04,1.96.07.87-.26,1.89-.85,2.58-.35.4-.76.64-1.16.69-.8.07-1.77-1.13-2.43-1.94-.26-.33-.47-.59-.61-.66-.87-.57-1.68.26-1.68.26h.02c.09.05.45.14.8.45.59.5.43,1.06.4,1.11v-.02c-.05-.09-.4-.4-1.28-.19-1.11.26-1.13,2.2-1.13,2.22h.02s.02-.02.02-.05c.12-.12.43-.47.76-.73.97-.71,2.41.85,2.46.9-.14.02-.28.07-.4.14-1.21.47-1.63,1.73-1.63,1.73h.02s.07-.02.17-.05c.71-.19,3.52-.95,7.23-.9,2.1.02,4.33.64,4.35.66h0v-.02h.02s-.02-.05-.07-.12c-.19-.28-.73-1.06-1.23-1.35-.59-.33-2.79-.59-2.96-.61.02-.02.07-.07.17-.14.47-.4,1.82-1.73,2.08-3.45.02-.12.02-.24.02-.35,0-1.06-.61-2.03-.66-2.1.02,0,.05,0,.07.02.26.07,1.11.31,1.7.69.52.35.9.76.9.76v-.02h0s0-.07-.02-.17c-.05-.4-.38-1.44-1.91-2.2-.66-.33-4.02-2.03-5.34-3.85.02,0,.09.02.17.02.54.09,2.27.35,3.59.26,1.89-.12,3.22-.47,4.37-1.23,1.32-.85,2.25-1.96,2.79-3.36.45-1.13.66-2.13.66-3.17,0-.8-.14-1.63-.4-2.53-.57-1.94-2.29-3.43-2.34-3.48-.07.12.76-2.01.78-2.06h0Zm-8.65,16.78s.07.07.12.09c-.05-.05-.09-.07-.12-.09Zm3.52-10.4c-.54.19-1.13.19-1.56-.02-.28-.14-.5-.35-.57-.61-.09-.31-.07-.66.12-.97.24-.43.66-.73,1.16-.85,1.47-.35,2.51.85,2.53.85-.05-.02-.73,1.28-1.68,1.61Zm6.62-11.28v.02-.02h0Zm-5.06,4.04h.05-.05s0,0,0,0Zm-25.82,25.65v.05h0v-.05Zm12.29-1.39v-.05.05h0Zm4.11,1.39v.05h0s-.02-.02,0-.05Zm4.14-8.18c-.35-.31-.64-.64-.87-.97h.02c.24.33.52.66.85.97Z"/>
    <path class="cls-1" d="m17.42,32.32c.57-1.18.59-2.15.59-2.17h.02c.14.05,1.56.31,3.03.05,1.56-.26,2.79-.78,2.79-.78,0-.07-1.63-5.79-4.59-7.47-2.34-1.35-5.51-.09-5.63-.05,0-.02,0-.05.02-.09.09-.4.5-1.94,1.56-3.19,1.3-1.54,3.31-2.53,3.33-2.53h0l-.02-.02c-.12-.09-.59-.5-.24-1.58.52-1.56,2.53-1.94,2.55-1.94l-.02-.02h0s-.02-.02-.07-.05c-.21-.17-.87-.73-.59-1.82.19-.71.76-1.23,1.68-1.54.07-.02.09-.02.09-.05-.45-.38-1.13-1.11-.71-1.96.35-.69,1.42-.87,1.82-.95.14-.02.17-.02.17-.05-.4-.4-1.02-.8-1.54-1.11l-.31-.19c-.33-.21-.69-.69-.71-1.13,0-.26.12-.47.35-.61,1.16-.76,1.68-1.82,1.7-1.84h-.02c-.07.02-.17.05-.24.05-.59.05-1.32-.14-1.35-.14,0,0,.02-.02.02-.05.14-.24.52-1.02.4-1.11-.02-.02-.09.02-.09.02-.26.19-.99.33-1.84.5l-1.02.21c-1.21.26-1.84.95-1.84.97-.02-.02-2.93-.83-3.88-.73s-1.61,1.32-1.61,1.35c0,0-1.58-.19-2.74.05s-1.96.78-1.99.87c.02.05.05.05.07.02.59-.17,2.27.21,2.32.21h0s-.09.19-.09.43c0,.19.05.43.17.66.24.43.9.52,1.58.26.28-.12.45-.28.61-.45.24-.26.43-.47.95-.4.85.09.95.85.95.85-.02,0-3.57.9-5.34.69-1.11-.14-1.99-.35-2.01-.35h0s.24-.59.24-.59h-.05c-.09.02-.4.09-1.56.02-1.37-.09-2.08-.64-2.08-.66v.02h0s0,.05.02.12c.07.28.35,1.06,1.28,1.91,1.13,1.04,2.6,1.49,2.62,1.49h0v-.02h0l-.02-.07c-.09-.24-.45-.92-.47-.97h.05c.17.05.83.19,1.63.26,1.49.12,2.36-.17,2.46-.19,0,0,0,.02-.02.02-.07.07-.24.35-.31.85v.09c0,.26.14.5.31.73.14.21.26.4.26.59,0,.05,0,.09-.02.14-.02.12-.05.24-.05.35,0,.69.4,1.56.4,1.58v-.02h0l.02-.07c.09-.24.33-.87.33-.87.33-.92.76-1.44.78-1.47l.02.05c.05.17.31.83.31.83v-.02.02-.05c.02-.14.09-.5.61-.8.9-.54,1.96-.61,2.08-.61-.02.05-.14.17-.28.38-.97,1.25-4.11,5.41-5.13,7.45-.59,1.16-.73,2.51-.73,3.59,0,1.25.19,2.2.21,2.25t-.05-.02c-.26-.09-1.32-.45-1.91-1.13-.5-.57-.59-2.13-.69-3.5l-.12-1.37c-.17-1.35-1.37-2.2-1.39-2.2,0,0,.31-.69.52-1.51.05-.17.07-.35.07-.54,0-.59-.17-1.13-.19-1.18,0,0,0,.05.02.12,0-.05-.02-.07-.02-.09v-.05.02-.02c0,.07-.02.14-.02.21-.12.33-.4.45-.54.47-.17.05-.31.02-.31,0,0-.83-.66-1.87-1.49-1.94-.57-.05-1.23.43-1.23.45h.02s.02,0,.05.02c.21.07.9.33,1.21.78.38.57.38,2.25.38,2.55v.05s-.02-.02-.05-.02c-.14-.14-.73-.64-1.23-1.35-.31-.45-.73-.35-1.02-.21-.35.14-.64.45-.64.47.61-.12.87.17.87.19,0,0,.35,1.06,1.13,1.75.73.64,1.13,1.39.78,2.96-.33,1.47-2.25,1.89-2.25,1.91v.02h0s.02.02.05.05c.19.19.87.8,1.61.59.83-.24,1.73-1.49,1.82-1.65,0,.05,0,.12.02.26.05.97.24,4.26.24,4.26.07,1.42.76,2.46,1.63,3.81l.8,1.28c.33.54.45,1.04.45,1.51,0,1.25-.87,2.13-.87,2.15v.02s0,.05.02.07c.12.09.47,0,1.04-.26.47-.21.83-.52,1.16-.78.47-.38.95-.78,1.8-1.04,1.47-.43,2.34.59,2.34.61,0,0,.5.71-.52,3.03-1.02,2.29-2.41,3.83-3.57,3.92-.8.07-1.77-1.13-2.43-1.94-.26-.33-.47-.59-.61-.66-.87-.57-1.68.26-1.68.26h.02c.09.05.45.14.8.45.59.5.43,1.06.4,1.11l-.02-.02c-.05-.09-.4-.4-1.28-.19-1.11.26-1.13,2.2-1.13,2.22h.02s.02-.02.02-.05c.12-.12.43-.47.76-.73.97-.71,2.39.85,2.46.9-.14.02-.28.07-.4.14-1.18.47-1.63,1.73-1.63,1.73h.02s.07-.02.17-.05c.71-.19,3.52-.95,7.23-.9,2.1.02,4.33.64,4.35.66h0v-.02h.02s-.02-.05-.07-.12c-.19-.31-.73-1.06-1.23-1.35-.59-.33-2.77-.59-2.96-.61.02-.02.09-.07.19-.14.57-.38,2.22-1.56,3.12-2.84s.92-3,.92-3.03h0s.31.07.76.92c.47.9.47,1.51.47,1.51,0,0,0-.02.02-.02v.02c.19-.38.38-.71.54-1.04ZM14.33,2.86s-.26.52-.85.47c-.54-.05-.54-.59-.54-.61h0s-.33-.19-.4-.24h.05c.26,0,1.16-.05,1.16-.05l.57.09c.33.07.73.17,1.16.14-.45.07-1.13.19-1.13.19h0ZM2.29,3.95s.02.02.07.05c-.02-.02-.05-.02-.07-.05h0Zm-1.75,14.28s.02,0,.07-.02c-.02.02-.05.02-.07.02h0Zm3.4-.92c.05-.07.07-.12.07-.12v.02s-.02.05-.07.09Zm1.13,17.9s-.02.05-.02.05h0s.02-.02.02-.05Z"/>
  </g>
  <path class="cls-2" d="m75.08,23.67c-.21,0-.26.14-.33.47-.09.38-.35.99-.71,1.39-.85.99-2.03,1.18-3.88,1.18-.78,0-1.49-.14-2.13-.38-.4-.17-.83-.35-1.21-.61-2.25-1.49-3.33-4.4-3.33-6.57,0-2.53.61-4.28,1.94-5.48.99-.9,2.25-1.3,3.97-1.3,1.84,0,3.57.52,4.3,1.3.5.52.8,1.23.83,1.94,0,.28.02.52.26.52.26,0,.28-.24.31-.54.02-.21.02-.64.02-1.09,0-.43,0-.87.02-1.23.02-.45.07-.73.07-.9.02-.12.02-.21.02-.28,0-.09-.05-.28-.38-.31s-.69-.09-1.04-.17-.71-.14-1.09-.19c-.92-.12-1.73-.21-3.1-.21-2.93,0-5.08.73-6.78,2.27-2.34,2.15-2.51,5.06-2.51,5.89,0,2.65.9,4.8,2.67,6.34,1.84,1.61,4.18,2.34,7.38,2.34,1.28,0,2.96-.14,3.88-.5.38-.14.47-.26.59-.66.21-.76.47-2.6.47-2.86-.02-.28-.14-.35-.26-.35Z"/>
  <path class="cls-2" d="m117.45,27.43c-.26,0-.61-.02-1.13-.19-.54-.17-.71-.71-.87-1.82l-1.68-11.42c-.07-.43-.19-.61-.38-.61-.21,0-.33.19-.45.47l-4.96,10.45-4.99-10.31c-.24-.47-.35-.59-.54-.59-.12,0-.28.09-.35.52l-1.82,12.03c-.09.69-.26,1.32-.71,1.42-.26.05-.4.05-.54.05-.24,0-.35.07-.35.19,0,.26.28.26.38.26.33,0,.76-.02,1.13-.02.28-.02.54-.02.69-.02s.35,0,.59.02c.4.02.87.05,1.35.05.17,0,.5,0,.5-.26,0-.12-.12-.19-.33-.19-.24,0-.5-.02-.76-.09-.35-.07-.52-.26-.52-.54,0-.31.02-.54.05-.85l.95-7.28c.26.54.57,1.21.87,1.84.47,1.02.92,1.96,1.04,2.2.24.52,1.73,3.43,2.13,4.18l.05.12c.28.54.45.85.64.85.21,0,.31-.19.73-1.06l4-8.39,1.11,8.06c.09.66-.05.73-.07.73-.12.05-.24.12-.24.26,0,.17.19.21.59.26.73.05,3.26.12,3.76.12.35,0,.52-.09.52-.26,0-.17-.24-.17-.35-.17Z"/>
  <path class="cls-2" d="m129.5,19.79c1.11-.9,1.82-1.8,1.82-3.22,0-.66-.28-2.81-4-2.81-.28,0-.59,0-.92.02-.4.02-.83.02-1.32.02-.14,0-.4,0-.71-.02-.5-.02-1.18-.05-1.8-.05-.21,0-.45.02-.45.21,0,.21.26.21.38.21.24,0,.57.02.71.05.59.12.71.43.76,1.02.05.59.05,1.09.05,3.9v3.24c0,1.7,0,3.14-.09,3.92-.07.59-.19.9-.5.97-.21.05-.43.07-.66.07-.09,0-.35,0-.35.19,0,.17.14.24.43.24.38,0,.87-.02,1.28-.05.26,0,.52,0,.71-.02h.33c.26,0,.8.02,1.39.05.26,0,.52.02.76.02s.43.02.54.02c3.45,0,4.99-2.06,4.99-4.07-.02-1.99-1.73-3.33-3.33-3.92Zm-.95-.43c-.31.28-.76.33-1.3.33-.4,0-.69-.02-.85-.05-.05,0-.09-.02-.09-.14v-4.59c0-.21.05-.24.12-.26.19-.05.33-.05.59-.05.87,0,2.25.76,2.25,2.81.02.87-.24,1.54-.71,1.94Zm-2.25,1.28c0-.07.02-.07.05-.07.28,0,.47,0,.8.02.69.05,1.11.17,1.51.43,1.61,1.11,1.77,2.91,1.77,3.64,0,2.2-1.82,2.32-2.17,2.32-.43,0-.83-.02-1.32-.21-.57-.24-.61-.52-.61-1.73v-4.4h-.02Z"/>
  <path class="cls-2" d="m152.15,27.31c-.14,0-.31-.02-.5-.05h-.02c-.28-.05-1.02-.21-2.01-1.23-.95-.99-2.03-2.36-3.38-4.09l-.57-.73c1.7-1.39,2.41-2.62,2.41-4.14,0-1.35-.83-2.27-1.28-2.58-1.04-.71-2.32-.8-3.43-.8-.28,0-.76.02-1.25.02-.52.02-1.04.02-1.35.02-.14,0-.4,0-.73-.02-.52-.02-1.18-.05-1.8-.05-.21,0-.45.02-.45.21,0,.21.26.21.38.21.28,0,.57.02.71.05.59.12.71.4.76,1.02.05.59.05,1.09.05,3.9v3.24c0,1.7,0,3.14-.09,3.92-.07.59-.19.9-.5.97-.21.05-.43.07-.66.07-.09,0-.35,0-.35.19,0,.17.14.24.43.24.45,0,1.04-.02,1.51-.05.33,0,.61-.02.76-.02.09,0,.31,0,.59.02.57.02,1.39.05,2.1.05.28,0,.43-.07.43-.24,0-.07-.02-.19-.28-.19-.24,0-.64-.05-.9-.07-.5-.07-.61-.4-.69-.97-.09-.78-.09-2.25-.09-3.95v-.26c0-.07.02-.09.09-.09l1.61.05c.12,0,.21.02.28.12.14.17.5.66.9,1.23.28.4.61.87.92,1.3,1.09,1.49,1.77,2.32,2.55,2.72.5.26.99.35,2.01.35h1.75c.14,0,.4,0,.4-.24-.05,0-.07-.14-.31-.14Zm-6.41-9.34c0,1.68-.66,2.43-1.06,2.72-.31.24-.54.31-1.28.31-.52,0-1.04-.07-1.37-.19-.09-.05-.14-.09-.14-.28v-5.6c0-.14.02-.19.12-.21.17-.05.45-.07.97-.07,1.04,0,2.77.71,2.77,3.33Z"/>
  <path class="cls-2" d="m161.21,27.28c-.28,0-.69-.05-.95-.07-.52-.07-.64-.35-.69-.85-.07-.78-.07-2.22-.07-4.04v-3.26c0-2.81,0-3.33.05-3.9.05-.66.19-.92.64-.99.24-.05.38-.05.54-.05.09,0,.35,0,.35-.24,0-.19-.33-.19-.45-.19-.38,0-.9.02-1.35.02-.35.02-.71.02-.9.02-.26,0-.64-.02-1.04-.02-.47-.02-.97-.02-1.35-.02-.26,0-.5.02-.5.19,0,.24.24.24.35.24.26,0,.47.02.66.07.38.09.54.38.59.99.05.59.05,1.09.05,3.9v3.24c0,1.82,0,3.24-.09,4.02-.07.59-.19.83-.5.87-.14.02-.35.07-.66.07-.09,0-.35,0-.35.19,0,.17.14.24.43.24.43,0,.97-.02,1.47-.02.38-.02.69-.02.87-.02s.47,0,.85.02c.57.02,1.28.05,2.03.05.35,0,.4-.17.4-.24-.07-.12-.12-.21-.4-.21Z"/>
  <path class="cls-2" d="m94.99,27.38c-.19,0-.47-.02-.76-.07-.4-.09-.92-.4-1.58-1.99-.66-1.58-1.91-4.68-2.91-7.19-.8-1.99-1.49-3.71-1.68-4.16-.19-.43-.31-.61-.52-.61s-.35.24-.57.78l-4.63,11.58c-.4.99-.76,1.54-1.54,1.63-.14.02-.4.05-.57.05-.07,0-.28,0-.28.19,0,.21.21.24.4.24.66,0,1.32-.02,1.77-.05.19,0,.33-.02.4-.02.28,0,.64.02.97.02.33.02.69.02.99.02.12,0,.38,0,.38-.24,0-.19-.17-.19-.33-.19h-.28c-.61,0-.69-.28-.69-.52,0-.21.09-.64.28-1.11l.47-1.23s.09-.17.21-.17h.31c.66,0,2.22.02,3.36.02s1.32,0,1.35-.02c.14-.02.19.12.19.12l.97,2.55c.05.09.02.19,0,.24s-.07.09-.12.12c-.17.02-.31.05-.31.21s.21.19.52.19h.07c1.49.05,2.84.05,3.5.05s.9-.02.9-.24-.17-.21-.28-.21Zm-9.67-5.46l1.7-4.54c.02-.07.05-.12.05-.12.02.02.02.07.05.12l1.65,4.59v.02h-3.45v-.07Zm3.95,1.42s-.05.02-.09.02h-4.28s-.05,0-.05-.02c-.02-.05,0-.19.02-.26,0,0,.05-.09.09-.09h4.11c.07,0,.12.02.14.09.05.07.09.21.05.26Z"/>
  <path class="cls-2" d="m179.72,27.4c-.19,0-.47-.02-.76-.07-.4-.09-.92-.4-1.58-1.99-.66-1.56-1.89-4.68-2.91-7.19-.8-2.01-1.49-3.74-1.68-4.18-.19-.43-.31-.61-.52-.61s-.33.21-.57.78l-4.63,11.58c-.4.99-.76,1.54-1.54,1.63-.14.02-.4.05-.57.05-.07,0-.28,0-.28.19,0,.21.21.24.4.24.66,0,1.32-.02,1.77-.05.19,0,.33-.02.4-.02.28,0,.64.02.97.02.33.02.69.02.99.02.12,0,.38,0,.38-.24,0-.19-.17-.19-.33-.19h-.28c-.61,0-.69-.28-.69-.52,0-.21.09-.64.28-1.11l.47-1.23s.09-.17.21-.17h.31c.66,0,2.22.02,3.36.02s1.32,0,1.35-.02c.14-.02.19.12.19.12l.97,2.55c.05.09.02.19,0,.24s-.07.09-.12.12c-.17.02-.31.05-.31.21s.21.19.52.19h.07c1.47.05,2.84.05,3.5.05s.9-.02.9-.24c0-.19-.19-.19-.28-.19Zm-9.67-5.46l1.7-4.54c.02-.09.05-.12.05-.12.02.02.02.07.05.09l1.68,4.59v.02h-3.48v-.05Zm3.97,1.42s-.05.02-.12.02h-4.37s-.05,0-.05-.02.02-.07.05-.12l.05-.12c.02-.09.05-.12.12-.12h4.11c.07,0,.12.02.14.09l.05.14s.05.09.02.12Z"/>
  <path class="cls-2" d="m178.53,16.27c.8,0,1.44-.64,1.44-1.44s-.64-1.44-1.44-1.44-1.44.64-1.44,1.44c0,.8.64,1.44,1.44,1.44Zm0-2.55c.59,0,1.06.5,1.06,1.11,0,.21-.07.43-.17.61-.02,0-.05-.02-.05-.02-.05,0-.09-.05-.14-.09-.07-.07-.14-.17-.24-.28-.05-.05-.07-.12-.12-.17.14-.17.21-.28.21-.45s-.09-.28-.17-.35c-.09-.07-.24-.09-.45-.09h-.52c-.09,0-.14.05-.14.12s.05.12.12.12c.05,0,.07,0,.07.02v1.18h-.05c-.07,0-.14.05-.14.12s.05.12.12.12h.52c.07,0,.12-.05.12-.09v-.05s-.02-.09-.12-.09h-.05v-.38h.14c.05.07.12.17.19.26.12.17.19.26.31.31.07.02.14.05.21.05-.19.17-.43.28-.71.28-.61,0-1.09-.5-1.09-1.11s.47-1.11,1.06-1.11Zm.17.8c0,.12-.05.19-.09.21-.02.02-.05.02-.07.02-.05,0-.09,0-.12-.02v-.52h.05c.21.05.24.26.24.31Z"/>
</svg>